<svg aria-hidden="true" style="position: absolute; width: 0; height: 0; overflow: hidden;" version="1.1" xmlns="http://www.w3.org/2000/svg" xmlns:xlink="http://www.w3.org/1999/xlink">
<path fill="#9be1a0" style="fill: var(--color1, #9be1a0)" d="M28.356 2.080c-0.116-0.4-0.32-0.764-0.587-1.084-0.267-0.311-0.596-0.56-0.96-0.738-0.373-0.178-0.773-0.267-1.173-0.258h-22.773c-0.4-0.027-0.809 0.062-1.164 0.249-0.382 0.169-0.72 0.427-0.987 0.756-0.267 0.311-0.462 0.676-0.587 1.076-0.116 0.4-0.16 0.818-0.107 1.236l2.596 22.969c0.169 1.573 0.898 3.022 2.036 4.071 1.12 1.049 2.569 1.636 4.071 1.644h11.076c1.511-0.009 2.96-0.596 4.080-1.644 1.129-1.058 1.849-2.507 2.027-4.071l1.413-12.916v-0.196l1.084-9.84c0.062-0.418 0.044-0.844-0.044-1.253zM12.373 27.271h-1.582c-1.022-0.062-2-0.48-2.764-1.182-0.773-0.72-1.271-1.68-1.431-2.738l-0.373-2.827c-0.053-0.427 0.062-0.862 0.32-1.2 0.258-0.347 0.631-0.569 1.040-0.631 0.418-0.062 0.836 0.044 1.173 0.302s0.56 0.64 0.631 1.076l0.373 2.782c0.044 0.311 0.196 0.587 0.418 0.791 0.222 0.213 0.507 0.329 0.8 0.347h1.591c0.418 0 0.818 0.169 1.111 0.48 0.302 0.302 0.471 0.72 0.471 1.156s-0.169 0.853-0.471 1.164c-0.293 0.302-0.693 0.48-1.111 0.48h-0.196zM25.031 12.124c-3.333 0.676-6.187 0.809-9.209-1.644-3.751-3.067-8.293-2.080-12.658-0.471l-0.791-6.96c-0.018-0.071-0.018-0.142 0-0.213 0.027-0.062 0.062-0.124 0.116-0.178 0.036-0.062 0.089-0.107 0.151-0.133 0.062-0.018 0.133-0.018 0.196 0h22.969c0.062 0.036 0.116 0.080 0.16 0.133 0.053 0.053 0.080 0.116 0.098 0.178 0.027 0.080 0.027 0.16 0 0.231l-1.031 9.058z"></path>
</svg>
