<svg aria-hidden="true" style="position: absolute; width: 0; height: 0; overflow: hidden;" version="1.1" xmlns="http://www.w3.org/2000/svg" xmlns:xlink="http://www.w3.org/1999/xlink">
<defs>
<symbol id="icon-eye" viewBox="0 0 32 32">
<path stroke-linejoin="round" stroke-linecap="round" stroke-miterlimit="4" stroke-width="2.88" d="M1.333 16c0 0 5.333-10.667 14.667-10.667s14.667 10.667 14.667 10.667c0 0-5.333 10.667-14.667 10.667s-14.667-10.667-14.667-10.667z"></path>
<path stroke-linejoin="round" stroke-linecap="round" stroke-miterlimit="4" stroke-width="2.88" d="M16 20c2.209 0 4-1.791 4-4s-1.791-4-4-4c-2.209 0-4 1.791-4 4s1.791 4 4 4z"></path>
</symbol>
<symbol id="icon-eye-off" viewBox="0 0 32 32">
<path stroke-linejoin="round" stroke-linecap="round" stroke-miterlimit="4" stroke-width="2.88" d="M23.92 23.92c-2.279 1.737-5.055 2.7-7.92 2.747-9.333 0-14.667-10.667-14.667-10.667 1.659-3.091 3.959-5.791 6.747-7.92M13.2 5.653c0.918-0.215 1.857-0.322 2.8-0.32 9.333 0 14.667 10.667 14.667 10.667-0.809 1.514-1.775 2.94-2.88 4.253M18.826 18.827c-0.366 0.393-0.808 0.708-1.298 0.927s-1.020 0.336-1.557 0.346-1.071-0.089-1.569-0.291c-0.498-0.201-0.951-0.5-1.33-0.88s-0.679-0.832-0.88-1.33c-0.201-0.498-0.3-1.032-0.29-1.569s0.127-1.067 0.346-1.557 0.534-0.932 0.927-1.298"></path>
<path stroke-linejoin="round" stroke-linecap="round" stroke-miterlimit="4" stroke-width="2.88" d="M1.333 1.333l29.333 29.333"></path>
</symbol>
<symbol id="icon-log-out" viewBox="0 0 32 32">
<path stroke-linejoin="round" stroke-linecap="round" stroke-miterlimit="4" stroke-width="3" d="M12 28h-5.333c-0.707 0-1.386-0.281-1.886-0.781s-0.781-1.178-0.781-1.886v-18.667c0-0.707 0.281-1.386 0.781-1.886s1.178-0.781 1.886-0.781h5.333"></path>
<path stroke-linejoin="round" stroke-linecap="round" stroke-miterlimit="4" stroke-width="3" d="M21.334 22.667l6.667-6.667-6.667-6.667"></path>
<path stroke-linejoin="round" stroke-linecap="round" stroke-miterlimit="4" stroke-width="3" d="M28 16h-16"></path>
</symbol>
<symbol id="icon-pie-chart" viewBox="0 0 32 32">
<path fill="none" stroke="#323f47" style="stroke: var(--color1, #323f47)" stroke-linejoin="round" stroke-linecap="round" stroke-miterlimit="4" stroke-width="2.6667" d="M22.933 18.667c0.369 0 0.554 0 0.704 0.082 0.123 0.068 0.238 0.195 0.293 0.324 0.067 0.157 0.050 0.324 0.016 0.659-0.174 1.733-0.77 3.404-1.744 4.861-1.172 1.754-2.838 3.121-4.787 3.929s-4.094 1.019-6.163 0.607c-2.069-0.412-3.97-1.428-5.462-2.919s-2.508-3.392-2.919-5.461c-0.412-2.069-0.2-4.214 0.607-6.163s2.175-3.615 3.929-4.787c1.457-0.974 3.128-1.57 4.861-1.744 0.334-0.034 0.502-0.050 0.659 0.016 0.13 0.055 0.257 0.17 0.324 0.293 0.082 0.15 0.082 0.334 0.082 0.704v8.533c0 0.373 0 0.56 0.073 0.703 0.064 0.125 0.166 0.227 0.291 0.291 0.143 0.073 0.329 0.073 0.703 0.073h8.533z"></path>
<path fill="none" stroke="#9be1a0" style="stroke: var(--color2, #9be1a0)" stroke-linejoin="round" stroke-linecap="round" stroke-miterlimit="4" stroke-width="2.6667" d="M18.667 3.733c0-0.369 0-0.554 0.082-0.704 0.068-0.123 0.195-0.238 0.324-0.293 0.157-0.067 0.324-0.050 0.659-0.016 2.438 0.245 4.73 1.323 6.478 3.071s2.826 4.040 3.071 6.478c0.033 0.334 0.050 0.502-0.016 0.659-0.055 0.13-0.17 0.257-0.293 0.324-0.15 0.082-0.334 0.082-0.704 0.082h-8.533c-0.373 0-0.56 0-0.703-0.073-0.125-0.064-0.227-0.166-0.291-0.291-0.073-0.143-0.073-0.329-0.073-0.703v-8.533z"></path>
</symbol>
<symbol id="icon-settings" viewBox="0 0 32 32">
<path stroke-linejoin="round" stroke-linecap="round" stroke-miterlimit="4" stroke-width="3" d="M16 20c2.209 0 4-1.791 4-4s-1.791-4-4-4c-2.209 0-4 1.791-4 4s1.791 4 4 4z"></path>
<path stroke-linejoin="round" stroke-linecap="round" stroke-miterlimit="4" stroke-width="3" d="M25.867 20c-0.178 0.402-0.231 0.848-0.152 1.281s0.285 0.832 0.592 1.146l0.080 0.080c0.248 0.248 0.445 0.542 0.579 0.865s0.203 0.671 0.203 1.021c0 0.35-0.069 0.697-0.203 1.021s-0.331 0.618-0.579 0.865c-0.248 0.248-0.542 0.445-0.866 0.579s-0.671 0.203-1.021 0.203c-0.35 0-0.697-0.069-1.021-0.203s-0.618-0.331-0.865-0.579l-0.080-0.080c-0.314-0.307-0.713-0.514-1.146-0.592s-0.879-0.025-1.281 0.152c-0.394 0.169-0.731 0.45-0.968 0.807s-0.364 0.777-0.366 1.206v0.227c0 0.707-0.281 1.386-0.781 1.886s-1.178 0.781-1.886 0.781-1.386-0.281-1.886-0.781c-0.5-0.5-0.781-1.178-0.781-1.886v-0.12c-0.010-0.441-0.153-0.869-0.41-1.228s-0.616-0.633-1.030-0.785c-0.402-0.178-0.848-0.231-1.281-0.152s-0.832 0.285-1.146 0.592l-0.080 0.080c-0.248 0.248-0.542 0.445-0.865 0.579s-0.671 0.203-1.021 0.203c-0.35 0-0.697-0.069-1.021-0.203s-0.618-0.331-0.865-0.579c-0.248-0.248-0.445-0.542-0.579-0.866s-0.203-0.671-0.203-1.021c0-0.35 0.069-0.697 0.203-1.021s0.331-0.618 0.579-0.865l0.080-0.080c0.307-0.314 0.514-0.713 0.592-1.146s0.025-0.879-0.152-1.281c-0.169-0.394-0.45-0.731-0.807-0.968s-0.777-0.364-1.206-0.366h-0.227c-0.707 0-1.386-0.281-1.886-0.781s-0.781-1.178-0.781-1.886c0-0.707 0.281-1.386 0.781-1.886s1.178-0.781 1.886-0.781h0.12c0.441-0.010 0.869-0.153 1.228-0.41s0.633-0.616 0.785-1.030c0.178-0.402 0.23-0.848 0.152-1.281s-0.285-0.832-0.592-1.146l-0.080-0.080c-0.248-0.248-0.445-0.542-0.579-0.866s-0.203-0.671-0.203-1.021c0-0.35 0.069-0.697 0.203-1.021s0.331-0.618 0.579-0.865c0.248-0.248 0.542-0.445 0.865-0.579s0.671-0.203 1.021-0.203c0.35 0 0.697 0.069 1.021 0.203s0.618 0.331 0.866 0.579l0.080 0.080c0.314 0.307 0.713 0.514 1.146 0.592s0.879 0.025 1.281-0.152h0.107c0.394-0.169 0.731-0.45 0.968-0.807s0.364-0.777 0.366-1.206v-0.227c0-0.707 0.281-1.386 0.781-1.886s1.178-0.781 1.886-0.781c0.707 0 1.386 0.281 1.886 0.781s0.781 1.178 0.781 1.886v0.12c0.002 0.429 0.129 0.848 0.366 1.206s0.573 0.638 0.968 0.807c0.402 0.177 0.848 0.23 1.281 0.152s0.832-0.285 1.146-0.592l0.080-0.080c0.248-0.248 0.542-0.445 0.865-0.579s0.671-0.203 1.021-0.203c0.35 0 0.697 0.069 1.021 0.203s0.618 0.331 0.865 0.579c0.248 0.248 0.445 0.542 0.579 0.865s0.203 0.671 0.203 1.021c0 0.35-0.069 0.697-0.203 1.021s-0.331 0.618-0.579 0.865l-0.080 0.080c-0.307 0.314-0.514 0.713-0.592 1.146s-0.025 0.879 0.152 1.281v0.107c0.169 0.394 0.45 0.731 0.807 0.968s0.777 0.364 1.206 0.366h0.227c0.707 0 1.386 0.281 1.886 0.781s0.781 1.178 0.781 1.886-0.281 1.386-0.781 1.886c-0.5 0.5-1.178 0.781-1.886 0.781h-0.12c-0.429 0.002-0.848 0.129-1.206 0.366s-0.638 0.573-0.807 0.968z"></path>
</symbol>
<symbol id="icon-trash" viewBox="0 0 32 32">
<path stroke-linejoin="round" stroke-linecap="round" stroke-miterlimit="4" stroke-width="3" d="M12 4h8"></path>
<path stroke-linejoin="round" stroke-linecap="round" stroke-miterlimit="4" stroke-width="3.6" d="M4 8h24M25.333 8l-0.935 14.026c-0.14 2.104-0.21 3.156-0.665 3.954-0.4 0.702-1.004 1.267-1.731 1.62-0.826 0.4-1.881 0.4-3.99 0.4h-4.025c-2.109 0-3.163 0-3.99-0.4-0.727-0.353-1.331-0.917-1.731-1.62-0.455-0.798-0.525-1.85-0.665-3.954l-0.935-14.026"></path>
</symbol>
<symbol id="icon-upload" viewBox="0 0 32 32">
<path stroke-linejoin="round" stroke-linecap="round" stroke-miterlimit="4" stroke-width="2.88" d="M28 20v5.333c0 0.707-0.281 1.386-0.781 1.886s-1.178 0.781-1.886 0.781h-18.667c-0.707 0-1.386-0.281-1.886-0.781s-0.781-1.178-0.781-1.886v-5.333"></path>
<path stroke-linejoin="round" stroke-linecap="round" stroke-miterlimit="4" stroke-width="2.88" d="M22.666 10.667l-6.667-6.667-6.667 6.667"></path>
<path stroke-linejoin="round" stroke-linecap="round" stroke-miterlimit="4" stroke-width="2.88" d="M16 4v16"></path>
</symbol>
<symbol id="icon-vector" viewBox="0 0 32 32">
<path stroke-linejoin="round" stroke-linecap="round" stroke-miterlimit="4" stroke-width="3.6" d="M22.666 4c0.35-0.35 0.766-0.628 1.223-0.817s0.948-0.287 1.443-0.287c0.495 0 0.986 0.098 1.443 0.287s0.873 0.467 1.224 0.817 0.628 0.766 0.817 1.223c0.19 0.458 0.287 0.948 0.287 1.443s-0.098 0.986-0.287 1.443c-0.189 0.458-0.467 0.873-0.817 1.223l-18 18-7.333 2 2-7.333 18-18z"></path>
</symbol>
<symbol id="icon-glass" viewBox="0 0 29 32">
<path d="M28.631 2.277c-0.119-0.393-0.319-0.756-0.587-1.064s-0.598-0.554-0.968-0.722c-0.367-0.174-0.769-0.262-1.174-0.257h-22.836c-0.405-0.023-0.81 0.060-1.174 0.241-0.378 0.17-0.714 0.423-0.984 0.74-0.268 0.308-0.468 0.67-0.587 1.062-0.123 0.389-0.161 0.801-0.111 1.207l2.603 22.527c0.175 1.541 0.905 2.961 2.047 3.991 1.117 1.029 2.57 1.602 4.079 1.609h11.109c1.514-0.006 2.972-0.579 4.094-1.609 1.128-1.040 1.849-2.456 2.031-3.991l1.412-12.663v-0.193l1.095-9.654c0.061-0.407 0.045-0.822-0.048-1.223zM12.603 26.976h-1.587c-1.028-0.058-2.007-0.466-2.777-1.159-0.768-0.702-1.273-1.651-1.428-2.687l-0.381-2.768c-0.049-0.422 0.067-0.846 0.323-1.183s0.632-0.558 1.047-0.616c0.415-0.059 0.836 0.049 1.173 0.301s0.564 0.628 0.631 1.047l0.381 2.735c0.043 0.299 0.189 0.573 0.413 0.772 0.222 0.206 0.509 0.326 0.809 0.338h1.587c0.421 0 0.824 0.169 1.122 0.471s0.465 0.711 0.465 1.138-0.167 0.836-0.465 1.138c-0.298 0.302-0.701 0.471-1.122 0.471h-0.19zM25.299 12.124c-3.348 0.66-6.205 0.788-9.236-1.609-3.761-3.009-8.316-2.044-12.696-0.467l-0.793-6.822c-0.016-0.069-0.016-0.14 0-0.209 0.022-0.068 0.060-0.129 0.111-0.177 0.038-0.059 0.093-0.105 0.159-0.129 0.062-0.018 0.128-0.018 0.19 0h23.043c0.060 0.034 0.113 0.077 0.159 0.129 0.048 0.048 0.079 0.111 0.095 0.177 0.024 0.073 0.024 0.152 0 0.225l-1.032 8.882z"></path>
</symbol>
<symbol id="icon-close" viewBox="0 0 32 32">
<path stroke-linejoin="round" stroke-linecap="round" stroke-miterlimit="4" stroke-width="3.4286" d="M24 8l-16 16"></path>
<path stroke-linejoin="round" stroke-linecap="round" stroke-miterlimit="4" stroke-width="3.4286" d="M8 8l16 16"></path>
</symbol>
<symbol id="icon-cheveron-left" viewBox="0 0 20 20">
<path d="M7.050 9.293l-0.707 0.707 5.657 5.657 1.414-1.414-4.242-4.243 4.242-4.243-1.414-1.414z"></path>
</symbol>
<symbol id="icon-cheveron-right" viewBox="0 0 20 20">
<path d="M12.95 10.707l0.707-0.707-5.657-5.657-1.414 1.414 4.242 4.243-4.242 4.243 1.414 1.414 4.95-4.95z"></path>
</symbol>
<symbol id="icon-cheveron-up" viewBox="0 0 20 20">
<path d="M10.707 7.050l-0.707-0.707-5.657 5.657 1.414 1.414 4.243-4.242 4.243 4.242 1.414-1.414z"></path>
</symbol>
<symbol id="icon-cheveron-down" viewBox="0 0 20 20">
<path d="M9.293 12.95l0.707 0.707 5.657-5.657-1.414-1.414-4.243 4.242-4.243-4.242-1.414 1.414z"></path>
</symbol>
</defs>
</svg>
